<svg id="Layer_1" data-name="Layer 1" xmlns="http://www.w3.org/2000/svg" viewBox="0 0 512 512"><defs><style>.cls-1{fill:#101a3b;}.cls-2{fill:#06f;}.cls-3{fill:#00b3ff;}.cls-4{fill:#8deaff;}</style></defs><rect class="cls-1" y="0.01" width="512" height="511.99"/><path class="cls-2" d="M256.79,373.42,165.17,252.14H91.71L210,408.75a29.31,29.31,0,0,0,46.78-35.33Z"/><path class="cls-2" d="M466.81,120.92a29.31,29.31,0,0,1-29.31,29.31H29.31a29.31,29.31,0,0,1,0-58.62H437.5A29.31,29.31,0,0,1,466.81,120.92Z"/><path class="cls-3" d="M480.6,120.92a29.31,29.31,0,0,1-29.31,29.31H158.72a29.31,29.31,0,0,1,0-58.62H451.29A29.31,29.31,0,0,1,480.6,120.92Z"/><path class="cls-4" d="M512,120.92a29.31,29.31,0,0,1-29.31,29.31h-177a29.31,29.31,0,0,1,0-58.62h177A29.31,29.31,0,0,1,512,120.92Z"/><path class="cls-3" d="M381.45,233.89a29.31,29.31,0,0,1-29.31,29.31H114.67a29.31,29.31,0,1,1,0-58.61H352.14A29.3,29.3,0,0,1,381.45,233.89Z"/><path class="cls-4" d="M381.45,233.89a29.31,29.31,0,0,1-29.31,29.31H257.87a29.31,29.31,0,1,1,0-58.61h94.27A29.3,29.3,0,0,1,381.45,233.89Z"/></svg>