<svg id="Layer_1" data-name="Layer 1" xmlns="http://www.w3.org/2000/svg" viewBox="0 0 512 128"><defs><style>.cls-1{fill:#fff;}.cls-2{fill:#06f;}.cls-3{fill:#00b3ff;}.cls-4{fill:#8deaff;}</style></defs><path class="cls-1" d="M187.31,50.89h-12.9v8.58H186.5v6.46H174.41V82.86h-7.49V44.44h20.39Z"/><path class="cls-1" d="M228.89,44.44V70.36c0,3.4-.23,8.76-4.49,11.64a11.82,11.82,0,0,1-6.28,1.73,12.61,12.61,0,0,1-8.81-3.58l4.55-5.47a4.43,4.43,0,0,0,3.74,2.08,3.3,3.3,0,0,0,2.94-1.33c.92-1.32.86-3.86.86-6.22V44.44Z"/><path class="cls-1" d="M285.74,74.8h-15.5l-3.39,8.06h-8.13l16.54-38.42h5.87L297.2,82.86h-8.06Zm-2.19-6.11-5.47-13.82-5.47,13.82Z"/><path class="cls-1" d="M327,82.86V44.44h5.19L355.6,70.07V44.44h7.49V82.86h-5.18L334.52,57.17V82.86Z"/><path class="cls-1" d="M402,44.44V82.86h-4.26V44.44Z"/><path class="cls-1" d="M446.72,48.47V82.86h-4.27V48.47h-9.33v-4h22.93v4Z"/><path class="cls-2" d="M96,82.42,81.8,63.57H70.38L88.77,87.92a4.56,4.56,0,0,0,3.64,1.81,4.49,4.49,0,0,0,2.74-.93A4.56,4.56,0,0,0,96,82.42Z"/><path class="cls-2" d="M128.68,43.18a4.55,4.55,0,0,1-4.55,4.55H60.68a4.56,4.56,0,0,1,0-9.11h63.45A4.56,4.56,0,0,1,128.68,43.18Z"/><path class="cls-3" d="M130.83,43.18a4.56,4.56,0,0,1-4.56,4.55H80.8a4.56,4.56,0,1,1,0-9.11h45.47A4.56,4.56,0,0,1,130.83,43.18Z"/><path class="cls-4" d="M135.71,43.18a4.56,4.56,0,0,1-4.56,4.55h-27.5a4.56,4.56,0,1,1,0-9.11h27.5A4.56,4.56,0,0,1,135.71,43.18Z"/><path class="cls-3" d="M115.41,60.74a4.55,4.55,0,0,1-4.55,4.55H74a4.56,4.56,0,1,1,0-9.11h36.91A4.55,4.55,0,0,1,115.41,60.74Z"/><path class="cls-4" d="M115.41,60.74a4.55,4.55,0,0,1-4.55,4.55H96.21a4.56,4.56,0,1,1,0-9.11h14.65A4.55,4.55,0,0,1,115.41,60.74Z"/></svg>